<mxfile host="app.diagrams.net" modified="2022-11-19T07:35:12.707Z" agent="5.0 (Windows NT 10.0; Win64; x64) AppleWebKit/537.36 (KHTML, like Gecko) Chrome/107.0.0.0 Safari/537.36" etag="vNx-PpZya1Peyi7PekXp" version="20.3.3" type="github">
  <diagram id="0iPJm1-ib4akO9Q2Zzzb" name="Page-1">
    <mxGraphModel dx="4022" dy="1785" grid="1" gridSize="10" guides="1" tooltips="1" connect="1" arrows="1" fold="1" page="1" pageScale="1" pageWidth="850" pageHeight="1100" math="0" shadow="0">
      <root>
        <mxCell id="0" />
        <mxCell id="1" parent="0" />
        <mxCell id="XbCnYSoXc4xWuu3MdExW-1" value="" style="rounded=0;whiteSpace=wrap;html=1;" vertex="1" parent="1">
          <mxGeometry x="360" y="600" width="40" height="320" as="geometry" />
        </mxCell>
        <mxCell id="XbCnYSoXc4xWuu3MdExW-3" value="" style="rounded=0;whiteSpace=wrap;html=1;" vertex="1" parent="1">
          <mxGeometry x="640" y="600" width="40" height="320" as="geometry" />
        </mxCell>
        <mxCell id="XbCnYSoXc4xWuu3MdExW-4" value="Decoder" style="rounded=1;whiteSpace=wrap;html=1;" vertex="1" parent="1">
          <mxGeometry x="160" y="720" width="120" height="80" as="geometry" />
        </mxCell>
        <mxCell id="XbCnYSoXc4xWuu3MdExW-5" value="I-MEM" style="rounded=1;whiteSpace=wrap;html=1;" vertex="1" parent="1">
          <mxGeometry x="-50" y="720" width="120" height="80" as="geometry" />
        </mxCell>
        <mxCell id="XbCnYSoXc4xWuu3MdExW-6" value="" style="endArrow=classic;html=1;rounded=0;exitX=1;exitY=0.5;exitDx=0;exitDy=0;entryX=0;entryY=0.5;entryDx=0;entryDy=0;" edge="1" parent="1" source="XbCnYSoXc4xWuu3MdExW-5" target="XbCnYSoXc4xWuu3MdExW-4">
          <mxGeometry width="50" height="50" relative="1" as="geometry">
            <mxPoint x="200" y="580" as="sourcePoint" />
            <mxPoint x="130" y="760" as="targetPoint" />
          </mxGeometry>
        </mxCell>
        <mxCell id="XbCnYSoXc4xWuu3MdExW-7" value="Instructions" style="text;html=1;strokeColor=none;fillColor=none;align=center;verticalAlign=middle;whiteSpace=wrap;rounded=0;" vertex="1" parent="1">
          <mxGeometry x="80" y="735" width="60" height="30" as="geometry" />
        </mxCell>
        <mxCell id="XbCnYSoXc4xWuu3MdExW-9" value="" style="endArrow=classic;html=1;rounded=0;entryX=-0.008;entryY=0.564;entryDx=0;entryDy=0;exitX=1;exitY=0.75;exitDx=0;exitDy=0;entryPerimeter=0;" edge="1" parent="1" source="XbCnYSoXc4xWuu3MdExW-4" target="XbCnYSoXc4xWuu3MdExW-1">
          <mxGeometry width="50" height="50" relative="1" as="geometry">
            <mxPoint x="160" y="620" as="sourcePoint" />
            <mxPoint x="210" y="570" as="targetPoint" />
          </mxGeometry>
        </mxCell>
        <mxCell id="XbCnYSoXc4xWuu3MdExW-10" value="" style="endArrow=classic;html=1;rounded=0;entryX=-0.008;entryY=0.564;entryDx=0;entryDy=0;exitX=1;exitY=0.75;exitDx=0;exitDy=0;entryPerimeter=0;" edge="1" parent="1">
          <mxGeometry width="50" height="50" relative="1" as="geometry">
            <mxPoint x="280.32" y="740" as="sourcePoint" />
            <mxPoint x="359.99999999999983" y="740.48" as="targetPoint" />
          </mxGeometry>
        </mxCell>
        <mxCell id="XbCnYSoXc4xWuu3MdExW-12" value="OPcode" style="text;html=1;strokeColor=none;fillColor=none;align=center;verticalAlign=middle;whiteSpace=wrap;rounded=0;" vertex="1" parent="1">
          <mxGeometry x="290" y="720" width="60" height="30" as="geometry" />
        </mxCell>
        <mxCell id="XbCnYSoXc4xWuu3MdExW-13" value="imm" style="text;html=1;strokeColor=none;fillColor=none;align=center;verticalAlign=middle;whiteSpace=wrap;rounded=0;" vertex="1" parent="1">
          <mxGeometry x="290" y="760" width="60" height="30" as="geometry" />
        </mxCell>
        <mxCell id="XbCnYSoXc4xWuu3MdExW-15" value="ALU" style="shape=trapezoid;perimeter=trapezoidPerimeter;whiteSpace=wrap;html=1;fixedSize=1;rotation=90;" vertex="1" parent="1">
          <mxGeometry x="450" y="730" width="130" height="60" as="geometry" />
        </mxCell>
        <mxCell id="XbCnYSoXc4xWuu3MdExW-16" value="" style="endArrow=classic;html=1;rounded=0;entryX=0.355;entryY=1.006;entryDx=0;entryDy=0;exitX=1.006;exitY=0.445;exitDx=0;exitDy=0;exitPerimeter=0;entryPerimeter=0;" edge="1" parent="1" source="XbCnYSoXc4xWuu3MdExW-1" target="XbCnYSoXc4xWuu3MdExW-15">
          <mxGeometry width="50" height="50" relative="1" as="geometry">
            <mxPoint x="500" y="680" as="sourcePoint" />
            <mxPoint x="550" y="630" as="targetPoint" />
          </mxGeometry>
        </mxCell>
        <mxCell id="XbCnYSoXc4xWuu3MdExW-17" value="" style="endArrow=classic;html=1;rounded=0;entryX=0.355;entryY=1.006;entryDx=0;entryDy=0;exitX=1.006;exitY=0.445;exitDx=0;exitDy=0;exitPerimeter=0;entryPerimeter=0;" edge="1" parent="1">
          <mxGeometry width="50" height="50" relative="1" as="geometry">
            <mxPoint x="400" y="781.2499999999999" as="sourcePoint" />
            <mxPoint x="484.4000000000001" y="779.9999999999999" as="targetPoint" />
          </mxGeometry>
        </mxCell>
        <mxCell id="XbCnYSoXc4xWuu3MdExW-18" value="" style="endArrow=classic;html=1;rounded=0;entryX=0;entryY=0.5;entryDx=0;entryDy=0;exitX=0.5;exitY=0;exitDx=0;exitDy=0;" edge="1" parent="1" source="XbCnYSoXc4xWuu3MdExW-15" target="XbCnYSoXc4xWuu3MdExW-3">
          <mxGeometry width="50" height="50" relative="1" as="geometry">
            <mxPoint x="410.24" y="752.3999999999999" as="sourcePoint" />
            <mxPoint x="494.6400000000001" y="751.1499999999999" as="targetPoint" />
          </mxGeometry>
        </mxCell>
        <mxCell id="XbCnYSoXc4xWuu3MdExW-19" value="ex_result" style="text;html=1;strokeColor=none;fillColor=none;align=center;verticalAlign=middle;whiteSpace=wrap;rounded=0;" vertex="1" parent="1">
          <mxGeometry x="560" y="735" width="60" height="30" as="geometry" />
        </mxCell>
        <mxCell id="XbCnYSoXc4xWuu3MdExW-20" value="D-MEM" style="rounded=1;whiteSpace=wrap;html=1;" vertex="1" parent="1">
          <mxGeometry x="780" y="630" width="120" height="110" as="geometry" />
        </mxCell>
        <mxCell id="XbCnYSoXc4xWuu3MdExW-21" value="Register File" style="rounded=1;whiteSpace=wrap;html=1;" vertex="1" parent="1">
          <mxGeometry x="760" y="800" width="120" height="100" as="geometry" />
        </mxCell>
        <mxCell id="XbCnYSoXc4xWuu3MdExW-22" value="" style="endArrow=classic;html=1;rounded=0;entryX=0;entryY=0.25;entryDx=0;entryDy=0;exitX=1.016;exitY=0.179;exitDx=0;exitDy=0;exitPerimeter=0;" edge="1" parent="1" source="XbCnYSoXc4xWuu3MdExW-3" target="XbCnYSoXc4xWuu3MdExW-20">
          <mxGeometry width="50" height="50" relative="1" as="geometry">
            <mxPoint x="680" y="665" as="sourcePoint" />
            <mxPoint x="775" y="665" as="targetPoint" />
          </mxGeometry>
        </mxCell>
        <mxCell id="XbCnYSoXc4xWuu3MdExW-23" value="raddr" style="text;html=1;strokeColor=none;fillColor=none;align=center;verticalAlign=middle;whiteSpace=wrap;rounded=0;" vertex="1" parent="1">
          <mxGeometry x="695" y="635" width="60" height="30" as="geometry" />
        </mxCell>
        <mxCell id="XbCnYSoXc4xWuu3MdExW-24" value="" style="endArrow=classic;html=1;rounded=0;entryX=-0.006;entryY=0.422;entryDx=0;entryDy=0;exitX=0.974;exitY=0.197;exitDx=0;exitDy=0;entryPerimeter=0;exitPerimeter=0;" edge="1" parent="1">
          <mxGeometry width="50" height="50" relative="1" as="geometry">
            <mxPoint x="680" y="690" as="sourcePoint" />
            <mxPoint x="780.3199999999999" y="690.72" as="targetPoint" />
          </mxGeometry>
        </mxCell>
        <mxCell id="XbCnYSoXc4xWuu3MdExW-25" value="" style="endArrow=classic;html=1;rounded=0;entryX=-0.006;entryY=0.422;entryDx=0;entryDy=0;exitX=0.974;exitY=0.197;exitDx=0;exitDy=0;entryPerimeter=0;exitPerimeter=0;" edge="1" parent="1">
          <mxGeometry width="50" height="50" relative="1" as="geometry">
            <mxPoint x="680" y="720" as="sourcePoint" />
            <mxPoint x="780.3199999999999" y="720.72" as="targetPoint" />
          </mxGeometry>
        </mxCell>
        <mxCell id="XbCnYSoXc4xWuu3MdExW-26" value="wraddr" style="text;html=1;strokeColor=none;fillColor=none;align=center;verticalAlign=middle;whiteSpace=wrap;rounded=0;" vertex="1" parent="1">
          <mxGeometry x="695" y="670" width="60" height="30" as="geometry" />
        </mxCell>
        <mxCell id="XbCnYSoXc4xWuu3MdExW-27" value="wdata" style="text;html=1;strokeColor=none;fillColor=none;align=center;verticalAlign=middle;whiteSpace=wrap;rounded=0;" vertex="1" parent="1">
          <mxGeometry x="695" y="700" width="60" height="30" as="geometry" />
        </mxCell>
        <mxCell id="XbCnYSoXc4xWuu3MdExW-28" value="" style="endArrow=classic;html=1;rounded=0;entryX=1;entryY=0.5;entryDx=0;entryDy=0;" edge="1" parent="1" target="XbCnYSoXc4xWuu3MdExW-29">
          <mxGeometry width="50" height="50" relative="1" as="geometry">
            <mxPoint x="680" y="620" as="sourcePoint" />
            <mxPoint x="50" y="560" as="targetPoint" />
            <Array as="points">
              <mxPoint x="760" y="620" />
              <mxPoint x="760" y="560" />
            </Array>
          </mxGeometry>
        </mxCell>
        <mxCell id="XbCnYSoXc4xWuu3MdExW-29" value="fetch_pc" style="rounded=1;whiteSpace=wrap;html=1;" vertex="1" parent="1">
          <mxGeometry x="-50" y="520" width="120" height="80" as="geometry" />
        </mxCell>
        <mxCell id="XbCnYSoXc4xWuu3MdExW-30" value="" style="endArrow=classic;html=1;rounded=0;exitX=0.5;exitY=1;exitDx=0;exitDy=0;entryX=0.5;entryY=0;entryDx=0;entryDy=0;" edge="1" parent="1" source="XbCnYSoXc4xWuu3MdExW-29" target="XbCnYSoXc4xWuu3MdExW-5">
          <mxGeometry width="50" height="50" relative="1" as="geometry">
            <mxPoint x="60" y="750" as="sourcePoint" />
            <mxPoint x="110" y="700" as="targetPoint" />
          </mxGeometry>
        </mxCell>
        <mxCell id="XbCnYSoXc4xWuu3MdExW-31" value="" style="endArrow=classic;html=1;rounded=0;entryX=-0.036;entryY=0.079;entryDx=0;entryDy=0;entryPerimeter=0;" edge="1" parent="1" target="XbCnYSoXc4xWuu3MdExW-3">
          <mxGeometry width="50" height="50" relative="1" as="geometry">
            <mxPoint x="560" y="625" as="sourcePoint" />
            <mxPoint x="590" y="740" as="targetPoint" />
          </mxGeometry>
        </mxCell>
        <mxCell id="XbCnYSoXc4xWuu3MdExW-32" value="wb_flush" style="text;html=1;strokeColor=none;fillColor=none;align=center;verticalAlign=middle;whiteSpace=wrap;rounded=0;" vertex="1" parent="1">
          <mxGeometry x="570" y="600" width="60" height="30" as="geometry" />
        </mxCell>
        <mxCell id="XbCnYSoXc4xWuu3MdExW-33" value="" style="endArrow=classic;html=1;rounded=0;entryX=-0.036;entryY=0.079;entryDx=0;entryDy=0;entryPerimeter=0;" edge="1" parent="1">
          <mxGeometry width="50" height="50" relative="1" as="geometry">
            <mxPoint x="280.72" y="625" as="sourcePoint" />
            <mxPoint x="359.28" y="625.28" as="targetPoint" />
          </mxGeometry>
        </mxCell>
        <mxCell id="XbCnYSoXc4xWuu3MdExW-34" value="ex_flush" style="text;html=1;strokeColor=none;fillColor=none;align=center;verticalAlign=middle;whiteSpace=wrap;rounded=0;" vertex="1" parent="1">
          <mxGeometry x="290.72" y="600" width="60" height="30" as="geometry" />
        </mxCell>
        <mxCell id="XbCnYSoXc4xWuu3MdExW-36" value="" style="endArrow=classic;html=1;rounded=0;exitX=0.981;exitY=0.645;exitDx=0;exitDy=0;exitPerimeter=0;entryX=0;entryY=0.08;entryDx=0;entryDy=0;entryPerimeter=0;" edge="1" parent="1">
          <mxGeometry width="50" height="50" relative="1" as="geometry">
            <mxPoint x="679.24" y="830.0000000000001" as="sourcePoint" />
            <mxPoint x="760" y="830.0000000000001" as="targetPoint" />
          </mxGeometry>
        </mxCell>
        <mxCell id="XbCnYSoXc4xWuu3MdExW-37" value="" style="endArrow=classic;html=1;rounded=0;exitX=0.981;exitY=0.645;exitDx=0;exitDy=0;exitPerimeter=0;entryX=0;entryY=0.08;entryDx=0;entryDy=0;entryPerimeter=0;" edge="1" parent="1">
          <mxGeometry width="50" height="50" relative="1" as="geometry">
            <mxPoint x="679.24" y="850.0000000000001" as="sourcePoint" />
            <mxPoint x="760" y="850.0000000000001" as="targetPoint" />
          </mxGeometry>
        </mxCell>
        <mxCell id="XbCnYSoXc4xWuu3MdExW-38" value="" style="endArrow=classic;html=1;rounded=0;exitX=0.981;exitY=0.645;exitDx=0;exitDy=0;exitPerimeter=0;entryX=0;entryY=0.08;entryDx=0;entryDy=0;entryPerimeter=0;" edge="1" parent="1">
          <mxGeometry width="50" height="50" relative="1" as="geometry">
            <mxPoint x="679.24" y="870.0000000000001" as="sourcePoint" />
            <mxPoint x="760" y="870.0000000000001" as="targetPoint" />
          </mxGeometry>
        </mxCell>
        <mxCell id="XbCnYSoXc4xWuu3MdExW-39" value="" style="endArrow=classic;html=1;rounded=0;exitX=0.981;exitY=0.645;exitDx=0;exitDy=0;exitPerimeter=0;entryX=0;entryY=0.08;entryDx=0;entryDy=0;entryPerimeter=0;" edge="1" parent="1">
          <mxGeometry width="50" height="50" relative="1" as="geometry">
            <mxPoint x="679.24" y="810" as="sourcePoint" />
            <mxPoint x="760" y="810" as="targetPoint" />
          </mxGeometry>
        </mxCell>
        <mxCell id="XbCnYSoXc4xWuu3MdExW-40" value="" style="endArrow=classic;html=1;rounded=0;exitX=0.981;exitY=0.645;exitDx=0;exitDy=0;exitPerimeter=0;entryX=0;entryY=0.08;entryDx=0;entryDy=0;entryPerimeter=0;" edge="1" parent="1">
          <mxGeometry width="50" height="50" relative="1" as="geometry">
            <mxPoint x="679.24" y="890" as="sourcePoint" />
            <mxPoint x="760" y="890" as="targetPoint" />
          </mxGeometry>
        </mxCell>
        <mxCell id="XbCnYSoXc4xWuu3MdExW-42" value="" style="endArrow=classic;html=1;rounded=0;exitX=1;exitY=0.75;exitDx=0;exitDy=0;entryX=0.25;entryY=1;entryDx=0;entryDy=0;" edge="1" parent="1" source="XbCnYSoXc4xWuu3MdExW-20" target="XbCnYSoXc4xWuu3MdExW-45">
          <mxGeometry width="50" height="50" relative="1" as="geometry">
            <mxPoint x="719.24" y="870" as="sourcePoint" />
            <mxPoint x="980" y="730" as="targetPoint" />
            <Array as="points">
              <mxPoint x="960" y="713" />
            </Array>
          </mxGeometry>
        </mxCell>
        <mxCell id="XbCnYSoXc4xWuu3MdExW-43" value="" style="endArrow=classic;html=1;rounded=0;exitX=1;exitY=0.25;exitDx=0;exitDy=0;entryX=0.75;entryY=1;entryDx=0;entryDy=0;" edge="1" parent="1" source="XbCnYSoXc4xWuu3MdExW-21" target="XbCnYSoXc4xWuu3MdExW-46">
          <mxGeometry width="50" height="50" relative="1" as="geometry">
            <mxPoint x="729.24" y="880" as="sourcePoint" />
            <mxPoint x="920" y="820" as="targetPoint" />
            <Array as="points">
              <mxPoint x="993" y="825" />
            </Array>
          </mxGeometry>
        </mxCell>
        <mxCell id="XbCnYSoXc4xWuu3MdExW-44" value="" style="endArrow=classic;html=1;rounded=0;exitX=1;exitY=0.75;exitDx=0;exitDy=0;entryX=0.75;entryY=1;entryDx=0;entryDy=0;" edge="1" parent="1" source="XbCnYSoXc4xWuu3MdExW-21" target="XbCnYSoXc4xWuu3MdExW-45">
          <mxGeometry width="50" height="50" relative="1" as="geometry">
            <mxPoint x="739.24" y="890" as="sourcePoint" />
            <mxPoint x="820" y="890" as="targetPoint" />
            <Array as="points">
              <mxPoint x="933" y="875" />
            </Array>
          </mxGeometry>
        </mxCell>
        <mxCell id="XbCnYSoXc4xWuu3MdExW-45" value="" style="shape=trapezoid;perimeter=trapezoidPerimeter;whiteSpace=wrap;html=1;fixedSize=1;size=10;rotation=-180;" vertex="1" parent="1">
          <mxGeometry x="920" y="910" width="50" height="10" as="geometry" />
        </mxCell>
        <mxCell id="XbCnYSoXc4xWuu3MdExW-46" value="" style="shape=trapezoid;perimeter=trapezoidPerimeter;whiteSpace=wrap;html=1;fixedSize=1;size=10;rotation=-180;" vertex="1" parent="1">
          <mxGeometry x="980" y="910" width="50" height="10" as="geometry" />
        </mxCell>
        <mxCell id="XbCnYSoXc4xWuu3MdExW-48" value="" style="endArrow=classic;html=1;rounded=0;exitX=1;exitY=0.25;exitDx=0;exitDy=0;entryX=0.25;entryY=1;entryDx=0;entryDy=0;" edge="1" parent="1" source="XbCnYSoXc4xWuu3MdExW-20" target="XbCnYSoXc4xWuu3MdExW-46">
          <mxGeometry width="50" height="50" relative="1" as="geometry">
            <mxPoint x="910" y="722.5" as="sourcePoint" />
            <mxPoint x="987.5" y="920" as="targetPoint" />
            <Array as="points">
              <mxPoint x="1018" y="658" />
            </Array>
          </mxGeometry>
        </mxCell>
        <mxCell id="XbCnYSoXc4xWuu3MdExW-50" value="" style="endArrow=classic;html=1;rounded=0;exitX=0.5;exitY=0;exitDx=0;exitDy=0;entryX=0.899;entryY=0.999;entryDx=0;entryDy=0;entryPerimeter=0;" edge="1" parent="1" source="XbCnYSoXc4xWuu3MdExW-46" target="XbCnYSoXc4xWuu3MdExW-15">
          <mxGeometry width="50" height="50" relative="1" as="geometry">
            <mxPoint x="580" y="900" as="sourcePoint" />
            <mxPoint x="630" y="850" as="targetPoint" />
            <Array as="points">
              <mxPoint x="1005" y="990" />
              <mxPoint x="460" y="990" />
              <mxPoint x="460" y="810" />
            </Array>
          </mxGeometry>
        </mxCell>
        <mxCell id="XbCnYSoXc4xWuu3MdExW-51" value="" style="endArrow=classic;html=1;rounded=0;exitX=0.5;exitY=0;exitDx=0;exitDy=0;entryX=0.75;entryY=1;entryDx=0;entryDy=0;" edge="1" parent="1" source="XbCnYSoXc4xWuu3MdExW-45" target="XbCnYSoXc4xWuu3MdExW-15">
          <mxGeometry width="50" height="50" relative="1" as="geometry">
            <mxPoint x="580" y="900" as="sourcePoint" />
            <mxPoint x="630" y="850" as="targetPoint" />
            <Array as="points">
              <mxPoint x="945" y="960" />
              <mxPoint x="440" y="960" />
              <mxPoint x="440" y="793" />
            </Array>
          </mxGeometry>
        </mxCell>
        <mxCell id="XbCnYSoXc4xWuu3MdExW-52" value="" style="endArrow=classic;html=1;rounded=0;entryX=0.119;entryY=0.999;entryDx=0;entryDy=0;entryPerimeter=0;" edge="1" parent="1" target="XbCnYSoXc4xWuu3MdExW-15">
          <mxGeometry width="50" height="50" relative="1" as="geometry">
            <mxPoint x="550" y="760" as="sourcePoint" />
            <mxPoint x="520" y="870" as="targetPoint" />
            <Array as="points">
              <mxPoint x="550" y="680" />
              <mxPoint x="470" y="680" />
              <mxPoint x="470" y="710" />
            </Array>
          </mxGeometry>
        </mxCell>
      </root>
    </mxGraphModel>
  </diagram>
</mxfile>
